<svg width="109" height="60" viewBox="0 0 109 60" fill="none" xmlns="http://www.w3.org/2000/svg">
<path d="M109 60C72.6618 60 36.3285 60 0 60C0 39.9948 0 19.9944 0 -4.57764e-05C36.3382 -4.57764e-05 72.6715 -4.57764e-05 109 -4.57764e-05C109 20.0052 109 40.0056 109 60ZM40.0696 15.3756C39.5767 15.504 39.1383 15.6876 38.6889 15.7212C37.1835 15.8352 35.6745 15.9252 34.1654 15.9696C30.107 16.0884 26.791 18.4632 25.4515 22.2564C24.8799 23.874 24.6231 25.5492 24.5977 27.258C24.5734 28.8372 24.6025 30.4188 24.5819 31.998C24.565 33.354 23.636 34.3344 22.408 34.338C21.0733 34.3416 20.1323 33.396 20.1008 32.0028C20.0863 31.3632 20.0984 30.7224 20.0996 30.0828C20.1032 24.6624 20.1081 19.242 20.1105 13.8216C20.1105 13.4532 20.0657 13.1316 20.624 13.0776C22.4092 12.9048 24.1992 12.7356 25.9674 12.45C27.6715 12.1752 29.4021 11.9052 31.0323 11.37C33.6035 10.5252 34.794 7.90675 34.4355 5.61595C33.4909 5.80315 32.5474 5.99515 31.6027 6.17755C24.6594 7.51555 17.6495 8.25355 10.5766 8.42395C9.18507 8.45755 7.78381 8.41195 6.40193 8.54875C4.42903 8.74315 2.88123 9.69955 2.25267 11.6328C1.6786 13.4016 1.93536 15.1128 3.42018 16.4124C4.9813 17.7804 6.82582 17.9748 8.78177 17.4864C8.71273 17.4276 8.63522 17.4144 8.55892 17.3928C7.38051 17.0604 6.84641 16.3308 6.99417 15.2532C7.12618 14.2884 7.79834 13.782 8.98766 13.7436C10.7426 13.6872 12.4975 13.626 14.2524 13.572C14.4437 13.566 14.6375 13.5876 14.8422 13.5972C14.8591 13.7772 14.8809 13.8936 14.8809 14.0112C14.8809 20.8116 14.8906 27.612 14.8712 34.4124C14.864 37.0476 13.9871 39.348 11.9924 41.166C11.7127 41.4204 11.4244 41.6664 11.1168 41.9376C11.3966 42.264 11.6557 42.5664 11.9089 42.8604C11.9743 42.8424 12.0227 42.8424 12.0506 42.8196C14.6605 40.6488 17.7561 39.6816 21.0612 39.198C22.3135 39.0144 23.5755 38.82 24.7914 38.4828C26.0994 38.1192 27.141 37.2744 28.0142 36.2208C29.6686 37.212 31.4223 37.6308 33.3116 37.3656C35.19 37.1016 36.7814 36.2664 38.0604 34.8792C39.6033 35.9208 41.2371 36.384 43.038 36.2304C44.8426 36.0768 46.3432 35.2848 47.6221 34.0368C48.7048 34.8336 49.8057 35.448 51.1331 35.6472C52.4593 35.8464 53.7116 35.5548 55.0135 35.2176C55.0995 37.356 54.5836 39.2243 53.2925 40.8432C52.0693 42.3792 50.5348 43.3619 48.4699 43.236C47.9418 43.2036 47.4211 43.062 46.8131 42.9564C47.0541 43.2468 47.2382 43.506 47.4574 43.7292C49.3964 45.6996 52.6373 46.182 55.3078 44.8944C57.7797 43.7028 59.0853 41.5932 59.7962 39.0864C60.1196 37.944 60.2237 36.7404 60.4381 35.5104C62.8058 36.2004 65.0282 35.784 66.9575 34.1652C70.1403 36.9804 73.4418 37.2636 76.9165 34.7976C77.0291 34.9116 77.126 35.0124 77.2241 35.1096C77.3391 35.2224 77.4518 35.3364 77.5717 35.4444C79.5567 37.2264 81.8602 37.7436 84.4253 37.0716C86.5908 36.504 88.0611 35.07 89.0942 33.1644C89.9686 31.554 90.3634 29.8056 90.4567 27.9888C90.5039 27.0708 90.5003 26.1504 90.5524 25.2324C90.5863 24.63 90.912 24.1788 91.4437 23.8908C92.7493 23.184 94.1518 24.084 94.1578 25.662C94.1687 28.5024 94.1566 31.3428 94.1348 34.182C94.1227 35.7468 93.4094 36.4788 91.8313 36.6072C91.7344 36.6156 91.6375 36.6324 91.514 36.6492C91.5007 36.8016 91.4825 36.9372 91.4789 37.074C91.4728 37.29 91.4776 37.5072 91.4776 37.7772C95.0359 38.16 98.444 38.9604 101.67 40.4136C102.18 39.3264 102.18 39.3264 101.339 38.6244C100.085 37.578 99.4819 36.198 99.4577 34.6188C99.4056 31.1196 99.3898 27.618 99.4431 24.1188C99.4758 22.02 101.739 20.7468 103.641 21.6768C103.994 21.8496 104.323 22.0716 104.685 22.284C105.474 20.9892 106.253 19.7124 107.022 18.45C105.054 16.3704 102.217 15.8496 99.6841 17.0916C99.3862 17.238 99.2421 17.1816 99.018 16.9728C97.8372 15.8712 96.1731 15.7692 94.8712 16.7424C94.4776 17.0376 94.1736 17.4528 93.8369 17.8212C93.5135 18.1764 93.235 18.5796 92.8777 18.894C91.9463 19.716 90.7716 19.8012 89.7688 19.0644C88.8798 18.4104 88.0781 17.6412 87.2097 16.9596C84.7959 15.0636 82.1618 14.5224 79.3023 15.8628C77.2301 16.8336 76.019 18.5712 75.233 20.64C74.5984 22.3116 74.4361 24.0576 74.4203 25.824C74.4082 27.1236 74.4506 28.4256 74.3913 29.7228C74.3295 31.0632 73.1196 31.854 71.8225 31.47C70.9566 31.2144 70.4612 30.4632 70.4612 29.376C70.4588 21.2748 70.46 13.1748 70.46 5.07355C70.46 4.83955 70.46 4.60555 70.46 4.30915C68.1032 4.30915 65.8142 4.30915 63.5082 4.30915C63.5082 4.70875 63.5082 5.09515 63.5082 5.47675C64.8417 5.63875 65.2002 6.04435 65.2014 7.36075C65.2026 12.3216 65.2014 17.2812 65.2014 22.242C65.2014 24.2616 65.1941 26.2824 65.205 28.302C65.2086 28.9668 65.0633 29.5704 64.614 30.078C63.9406 30.84 62.853 31.1256 61.9181 30.792C60.9443 30.444 60.3 29.5548 60.2976 28.4856C60.2891 24.4452 60.294 20.4048 60.294 16.3644C60.294 16.1304 60.294 15.8964 60.294 15.6552C58.5051 15.6552 56.7866 15.6552 55.0244 15.6552C55.0244 15.9444 55.0244 16.182 55.0244 16.4196C55.0244 20.3004 55.0244 24.18 55.0232 28.0608C55.0232 28.32 55.0268 28.5816 55.0002 28.8396C54.896 29.8272 54.3062 30.4284 53.3943 30.7404C52.5852 31.0176 51.6854 30.7392 51.0956 30.0768C50.6366 29.5632 50.5227 28.9464 50.5239 28.2924C50.53 26.052 50.5433 23.8116 50.5409 21.5724C50.5397 20.3928 50.5893 19.2072 50.4803 18.0372C50.318 16.302 48.5692 14.9868 46.7743 15.1428C44.9746 15.2988 43.6024 16.818 43.669 18.5784C44.7554 18.2028 45.2834 18.4692 45.2871 19.4364C45.298 22.5372 45.2968 25.6368 45.2859 28.7376C45.2834 29.6052 44.9407 30.342 44.2237 30.858C43.365 31.4748 42.4228 31.5564 41.483 31.0752C40.5407 30.5928 40.0793 29.7744 40.0769 28.7292C40.0672 25.2684 40.0696 21.8088 40.0684 18.348C40.0696 17.37 40.0696 16.3932 40.0696 15.3756ZM13.9254 55.1352C13.9508 55.1988 13.975 55.2624 14.0004 55.326C14.6908 54.8484 15.3545 55.128 16.023 55.3092C16.4106 55.4148 16.8066 55.4916 17.1905 55.608C17.784 55.7868 18.0795 55.3692 18.3968 55.1652C17.5066 54.9552 16.6225 54.7452 15.7372 54.5364C17.9632 53.7408 18.7359 52.7736 18.4937 50.994C18.3084 49.6296 17.3528 48.9072 15.6742 48.8616C14.1652 48.822 13.0824 49.626 12.8136 50.9856C12.4841 52.6524 13.1151 53.6664 14.9512 54.3552C14.5963 54.6264 14.2608 54.8808 13.9254 55.1352ZM93.2955 51.4056C93.7339 52.1112 94.1494 52.7676 94.5514 53.4324C95.0201 54.2076 95.4125 54.3432 96.2979 54.0528C95.7044 53.226 95.1001 52.3836 94.4764 51.5148C94.7258 51.3456 94.8966 51.246 95.048 51.1224C95.4973 50.7552 95.7601 50.2992 95.5918 49.7064C95.4283 49.1316 94.9681 48.9588 94.4231 48.9576C93.396 48.9552 92.3702 48.9636 91.3432 48.9756C91.3057 48.9756 91.2693 49.0488 91.1773 49.1448C92.0614 49.23 91.8834 49.8696 91.8931 50.388C91.9076 51.186 91.9027 51.9864 91.8676 52.7831C91.8458 53.274 92.0469 53.904 91.2548 54.0528C92.0335 54.0528 92.8111 54.0528 93.5898 54.0528C93.6383 53.9988 93.6867 53.9448 93.7339 53.892C92.8898 53.9388 93.0121 53.424 93.0061 52.9896C92.9988 52.5107 92.9988 52.0308 92.9976 51.552C92.9964 50.82 92.9976 50.088 92.9976 49.374C93.9556 49.2372 94.4146 49.4724 94.4982 50.0736C94.6011 50.826 94.1942 51.2892 93.2955 51.4056ZM64.6128 50.4612C64.6576 50.274 64.6879 50.088 64.7472 49.9092C64.9301 49.3584 64.6891 49.0464 64.155 49.014C63.3181 48.9636 62.4594 48.8664 61.6431 48.996C60.3908 49.1952 59.6266 50.1888 59.5939 51.3924C59.5552 52.8072 60.2382 53.7816 61.5123 54.1656C62.5902 54.4908 63.6281 54.2976 64.6491 53.9472C64.7678 53.9064 64.8732 53.6976 64.8998 53.5512C64.9894 53.076 65.0391 52.5948 65.0984 52.1592C64.4711 52.1592 63.7335 52.1592 62.9959 52.1592C63.1267 52.3344 63.2672 52.3944 63.4126 52.4028C63.8304 52.4292 63.8256 52.7304 63.8074 53.0088C63.7892 53.2992 63.9394 53.6592 63.4671 53.79C62.3916 54.0876 61.304 53.6352 60.971 52.5792C60.7869 51.996 60.7663 51.3132 60.8632 50.7048C60.9976 49.8612 61.7219 49.3524 62.5902 49.2924C63.6512 49.2204 63.9866 49.4232 64.4481 50.406C64.4565 50.4312 64.5159 50.4324 64.6128 50.4612ZM70.5 48.9672C70.7676 49.2576 71.1504 49.4796 71.1649 49.722C71.2206 50.676 71.2 51.6396 71.131 52.5936C71.0765 53.3556 70.5981 53.6724 69.7334 53.6472C68.8783 53.622 68.4338 53.2584 68.4011 52.5012C68.3709 51.7824 68.3793 51.0624 68.3866 50.3436C68.3914 49.8336 68.2473 49.242 68.9958 49.0728C69.0055 49.0704 68.9897 48.9624 68.9885 48.9324C68.1965 48.9324 67.4153 48.9324 66.6341 48.9324C67.5303 49.278 67.2203 50.016 67.2457 50.61C67.276 51.288 67.2469 51.9684 67.259 52.6476C67.2712 53.3076 67.5667 53.8284 68.2001 54.0492C68.6482 54.2064 69.1435 54.3 69.6183 54.3036C70.9505 54.3132 71.6602 53.586 71.6881 52.2612C71.6978 51.8016 71.659 51.3384 71.7063 50.8836C71.7753 50.2128 71.4628 49.4196 72.2694 48.882C71.6905 48.9084 71.1128 48.9372 70.5 48.9672ZM19.9337 48.924C19.8961 48.9804 19.8574 49.0368 19.8198 49.0944C20.693 49.1772 20.5719 49.7664 20.5756 50.2884C20.5816 51.108 20.5731 51.9288 20.584 52.7484C20.5925 53.4024 20.9328 53.8644 21.5408 54.0672C21.9744 54.2112 22.4467 54.3 22.9033 54.3072C24.181 54.3252 24.8908 53.6532 24.9731 52.3908C25.0143 51.7524 24.9961 51.1104 25.0361 50.4732C25.07 49.9296 24.8181 49.2696 25.6998 49.0224C25.6574 48.972 25.615 48.9228 25.5714 48.8724C24.9901 48.9096 24.4087 48.9456 23.7341 48.9888C24.4802 49.548 24.4814 49.548 24.4802 50.5284C24.4802 51.1488 24.4911 51.7692 24.4705 52.3884C24.4414 53.25 24.0079 53.6448 23.1237 53.6496C22.1597 53.6556 21.7019 53.2536 21.6704 52.3584C21.6547 51.8988 21.6268 51.4344 21.6728 50.9796C21.7419 50.2788 21.3119 49.4232 22.2578 48.9276C21.4827 48.924 20.7076 48.924 19.9337 48.924ZM28.0384 54.1259C27.1798 53.8871 27.4886 53.3808 27.6836 52.9032C27.9173 52.3307 28.4175 52.6152 28.7881 52.602C29.8745 52.5612 29.9811 52.6824 30.101 53.7696C29.9132 53.8716 29.7279 53.9724 29.4118 54.1428C30.388 54.1428 31.1716 54.1428 31.954 54.1428C31.1716 53.6856 31.1013 52.8528 30.784 52.1832C30.3226 51.2099 29.9375 50.2032 29.4918 49.2216C29.4264 49.0776 29.2217 48.93 29.0667 48.9132C28.9589 48.9011 28.7821 49.0884 28.713 49.224C27.8895 50.8512 27.64 52.7508 26.3526 54.1248C26.8988 54.126 27.468 54.1259 28.0384 54.1259ZM89.7082 54.168C89.7373 54.1212 89.7676 54.0756 89.7966 54.0288C88.927 53.7552 88.8822 52.9464 88.5867 52.314C88.1217 51.3204 87.7196 50.2968 87.2642 49.2972C87.1879 49.1304 86.9759 48.918 86.8294 48.9192C86.6865 48.9216 86.4867 49.146 86.414 49.3152C85.9804 50.3244 85.5953 51.3528 85.1569 52.3596C84.8844 52.986 84.7984 53.7408 83.8985 54.0924C84.6252 54.0924 85.1811 54.0924 85.737 54.0924C85.7358 54.054 85.7346 54.0144 85.7346 53.976C85.5602 53.9016 85.3857 53.8284 85.221 53.7588C85.3785 52.6632 85.4439 52.59 86.2251 52.5864C87.6869 52.5804 87.6869 52.5804 87.8613 53.7576C87.6796 53.8644 87.4979 53.9724 87.3163 54.0792C87.3381 54.1092 87.3587 54.1392 87.3805 54.168C88.158 54.168 88.9331 54.168 89.7082 54.168ZM101.074 50.2752C101.381 49.7112 101.358 49.188 101.008 49.0728C100.198 48.8076 99.3814 48.7812 98.5941 49.1532C98.0625 49.4039 97.7488 50.0304 97.8118 50.658C97.8735 51.2736 98.1715 51.7056 98.8073 51.8604C99.2372 51.9648 99.6757 52.0464 100.092 52.1868C100.678 52.3848 100.864 53.0244 100.492 53.4995C100.115 53.9808 99.5776 53.9976 99.058 53.8752C98.6002 53.7672 98.1799 53.544 98.2005 52.9512C98.2029 52.8624 98.1182 52.7712 98.0746 52.6812C98.0261 52.6848 97.9789 52.6884 97.9304 52.692C97.8881 53.1204 97.8469 53.5476 97.8021 53.9976C98.9127 54.4632 99.976 54.5784 100.99 53.8644C101.601 53.4348 101.742 52.8156 101.606 52.11C101.478 51.4452 100.996 51.222 100.401 51.1212C100.045 51.0612 99.6902 50.9855 99.3353 50.9196C98.8763 50.8332 98.622 50.4948 98.7334 50.1084C98.8218 49.8024 99.1331 49.4328 99.4274 49.3344C100.194 49.0764 100.68 49.4028 100.935 50.184C100.949 50.2248 101.026 50.2452 101.074 50.2752ZM48.327 49.0092C46.6544 49.0092 45.0582 49.0092 43.428 49.0092C43.4583 49.416 43.4849 49.776 43.5116 50.1372C43.5697 50.1468 43.6279 50.1564 43.686 50.166C43.7587 49.9464 43.8301 49.7268 43.9197 49.4544C44.3497 49.4544 44.7966 49.4544 45.3052 49.4544C45.3052 50.5584 45.3113 51.612 45.3028 52.6668C45.298 53.2284 45.5123 53.9076 44.6258 54.0996C45.4445 54.0996 46.2632 54.0996 47.0819 54.0996C47.1098 54.0492 47.1389 53.9988 47.1667 53.9484C46.4461 53.9364 46.4352 53.4924 46.4437 53.0076C46.4582 52.17 46.4461 51.3312 46.4461 50.4924C46.4461 50.1456 46.4461 49.7976 46.4461 49.4628C47.375 49.3932 47.375 49.3932 48.2688 50.22C48.2882 49.7928 48.3064 49.4316 48.327 49.0092ZM54.9493 49.0536C54.8985 49.0056 54.8476 48.9564 54.7967 48.9084C53.645 49.2504 53.7285 50.6748 52.8626 51.27C52.5138 50.664 52.1844 50.0484 51.8138 49.458C51.3705 48.7512 50.5796 48.6876 49.939 49.2768C50.1448 49.4148 50.4113 49.5096 50.5445 49.698C51.0386 50.4012 51.5873 51.0924 51.9191 51.8712C52.1286 52.3644 52.0293 53.0076 51.976 53.574C51.9627 53.718 51.5958 53.8284 51.3959 53.9616C51.3778 53.9736 51.3935 54.036 51.3935 54.0912C52.2086 54.0912 53.0237 54.0912 53.8872 54.0912C53.6026 53.856 53.2283 53.6964 53.2114 53.5068C53.1387 52.7028 53.0188 51.8772 53.5565 51.1392C54.0446 50.4612 54.4867 49.7496 54.9493 49.0536ZM79.9394 49.4472C79.9394 50.622 79.9261 51.7752 79.9454 52.9272C79.9539 53.4552 79.937 53.9268 79.26 54.096C80.0799 54.096 80.8998 54.096 81.7246 54.096C81.4775 53.856 81.1287 53.6748 81.1214 53.4816C81.073 52.1496 81.096 50.814 81.096 49.4328C81.5114 49.4328 81.9062 49.3416 82.2187 49.4616C82.4706 49.5588 82.6208 49.9116 82.8884 50.238C82.8884 49.7688 82.8884 49.3932 82.8884 49.0116C81.2789 49.0116 79.6814 49.0116 78.0501 49.0116C78.0864 49.4196 78.1179 49.7796 78.1494 50.1396C78.1942 50.1744 78.2378 50.2104 78.2826 50.2452C78.4534 49.14 79.1945 49.4112 79.9394 49.4472ZM35.2082 53.7444C35.2082 52.5156 35.2046 51.4008 35.2106 50.2848C35.2131 49.8132 35.0992 49.2696 35.8029 49.1484C35.8089 49.1472 35.8041 49.0752 35.8041 49.0296C35.0072 49.0296 34.2187 49.0296 33.4315 49.0296C33.3879 49.0776 33.3431 49.1256 33.2995 49.1724C34.2357 49.2408 34.0625 49.8648 34.0746 50.382C34.0891 51.0408 34.0988 51.7008 34.0686 52.3584C34.0395 52.9812 34.2466 53.658 33.5986 54.2232C34.8255 54.2232 35.93 54.234 37.0346 54.2112C37.1944 54.2076 37.4585 54.0695 37.4875 53.9496C37.5735 53.5956 37.5662 53.2188 37.6002 52.7831C37.0406 52.8983 37.3591 53.7528 36.6785 53.6772C36.2292 53.628 35.7653 53.7144 35.2082 53.7444ZM39.395 48.9804C39.3623 49.032 39.3284 49.0836 39.2957 49.1352C40.112 49.1952 39.9945 49.7448 39.9957 50.2284C39.9969 51.108 39.9848 51.9888 39.9909 52.8684C39.9945 53.3424 40.0418 53.8248 39.4011 53.9508C39.3962 53.952 39.4047 54.0228 39.4071 54.0672C40.1847 54.0672 40.961 54.0672 41.7167 54.0672C41.5048 53.8524 41.1669 53.67 41.1608 53.4768C41.1148 52.1028 41.1366 50.7264 41.1366 49.3932C41.4067 49.2744 41.5992 49.1904 41.7906 49.1064C41.7724 49.0644 41.7555 49.0224 41.7373 48.9804C40.9561 48.9804 40.175 48.9804 39.395 48.9804ZM73.9056 53.9112C73.9517 53.9592 73.9977 54.006 74.0437 54.054C74.8224 54.054 75.6024 54.054 76.3388 54.054C76.1341 53.8428 75.7962 53.6568 75.7901 53.46C75.7429 52.0908 75.7659 50.7192 75.7659 49.3872C76.0469 49.2684 76.2382 49.188 76.4284 49.1076C76.4114 49.0668 76.3933 49.026 76.3763 48.9852C75.5915 48.9852 74.8055 48.9852 74.0207 48.9852C74.7982 49.2456 74.6299 49.8576 74.6323 50.3844C74.6359 51.2016 74.6323 52.0188 74.625 52.8372C74.6202 53.3136 74.7619 53.8716 73.9056 53.9112ZM104.543 39.252C103.815 39.2508 103.278 39.8088 103.287 40.5576C103.297 41.2848 103.822 41.8224 104.525 41.8224C105.19 41.8224 105.788 41.2368 105.809 40.5648C105.831 39.8556 105.249 39.2532 104.543 39.252Z" fill="white"/>
</svg>
